HIERARCHY
ROOT Hips
{
	OFFSET 0.000000 0.000000 0.000000
	CHANNELS 6 Xposition Yposition Zposition Yrotation Xrotation Zrotation
	JOINT Chest
	{
		OFFSET 0.000000 -0.009281 11.569106
		CHANNELS 3 Yrotation Xrotation Zrotation
		JOINT Chest2
		{
			OFFSET -0.000000 0.016865 9.269641
			CHANNELS 3 Yrotation Xrotation Zrotation
			JOINT Chest3
			{
				OFFSET -0.000000 0.000001 8.374491
				CHANNELS 3 Yrotation Xrotation Zrotation
				JOINT Chest4
				{
					OFFSET -0.000000 0.000001 8.374493
					CHANNELS 3 Yrotation Xrotation Zrotation
					JOINT Neck
					{
						OFFSET -0.000000 0.000002 12.152554
						CHANNELS 3 Yrotation Xrotation Zrotation
						JOINT Head
						{
							OFFSET -0.000000 0.040101 7.802319
							CHANNELS 3 Yrotation Xrotation Zrotation
							End Site
							{
								OFFSET -0.000000 0.020947 14.853096
							}
						}
					}
					JOINT RightCollar
					{
						OFFSET 2.894404 0.000001 6.791374
						CHANNELS 3 Yrotation Xrotation Zrotation
						JOINT RightShoulder
						{
							OFFSET 13.574684 0.000001 0.000000
							CHANNELS 3 Yrotation Xrotation Zrotation
							JOINT RightElbow
							{
								OFFSET 23.923903 0.000002 0.000000
								CHANNELS 3 Yrotation Xrotation Zrotation
								JOINT RightWrist
								{
									OFFSET 19.846718 0.012767 0.000000
									CHANNELS 3 Yrotation Xrotation Zrotation
									End Site
									{
										OFFSET 14.973145 0.000001 0.000000
									}
								}
							}
						}
					}
					JOINT LeftCollar
					{
						OFFSET -2.894404 0.000001 6.791374
						CHANNELS 3 Yrotation Xrotation Zrotation
						JOINT LeftShoulder
						{
							OFFSET -13.574684 -0.000001 0.000000
							CHANNELS 3 Yrotation Xrotation Zrotation
							JOINT LeftElbow
							{
								OFFSET -23.923903 -0.000002 0.000000
								CHANNELS 3 Yrotation Xrotation Zrotation
								JOINT LeftWrist
								{
									OFFSET -19.846718 0.012763 0.000000
									CHANNELS 3 Yrotation Xrotation Zrotation
									End Site
									{
										OFFSET -14.973145 -0.000001 0.000000
									}
								}
							}
						}
					}
				}
			}
		}
	}
	JOINT RightHip
	{
		OFFSET 9.469263 0.004643 0.045487
		CHANNELS 3 Yrotation Xrotation Zrotation
		JOINT RightKnee
		{
			OFFSET 0.000000 0.002661 -40.478676
			CHANNELS 3 Yrotation Xrotation Zrotation
			JOINT RightAnkle
			{
				OFFSET 0.000000 0.049106 -35.224068
				CHANNELS 3 Yrotation Xrotation Zrotation
				JOINT RightToe
				{
					OFFSET -0.000001 12.539529 -6.151390
					CHANNELS 3 Yrotation Xrotation Zrotation
					End Site
					{
						OFFSET -0.000001 5.044994 -1.291870
					}
				}
			}
		}
	}
	JOINT LeftHip
	{
		OFFSET -9.469263 0.004641 0.045487
		CHANNELS 3 Yrotation Xrotation Zrotation
		JOINT LeftKnee
		{
			OFFSET 0.000000 0.002661 -40.478676
			CHANNELS 3 Yrotation Xrotation Zrotation
			JOINT LeftAnkle
			{
				OFFSET 0.000000 0.049106 -35.224068
				CHANNELS 3 Yrotation Xrotation Zrotation
				JOINT LeftToe
				{
					OFFSET -0.000001 12.539529 -6.151390
					CHANNELS 3 Yrotation Xrotation Zrotation
					End Site
					{
						OFFSET -0.000001 5.044994 -1.291870
					}
				}
			}
		}
	}
}
MOTION
Frames: 12
Frame Time: 0.016667
-36.986763 51.975666 81.887260 -4.679848 3.381838 -106.726221 1.625096 -0.419811 -0.979407 0.620483 -0.211229 -0.173123 0.620484 -0.211229 -0.173126 0.465302 -0.158598 -0.129632 0.249057 -15.426232 -1.726132 -0.177892 7.524755 -3.132269 9.435596 -0.214309 -4.276257 57.899725 -28.896700 -16.414889 -10.320794 -78.316971 87.629551 -17.628363 7.665152 30.381836 -7.766363 1.056687 -5.402736 -59.978978 -25.054951 14.313268 -78.280095 -55.886831 -4.559783 -1.113934 16.215011 -31.905091 -5.268664 -19.567268 -19.266193 6.479004 -21.947718 -0.877009 23.978407 -27.248792 2.092269 -43.261981 58.877023 -24.581043 -12.017492 0.879739 0.686585 -4.137411 -2.138794 17.147077 8.032450 -1.830827 10.167964 -0.698296 -0.745909 -0.887180 
-36.559010 51.840496 81.891594 -4.316981 3.492053 -106.383290 1.640153 -0.432167 -0.896893 0.581828 -0.229735 -0.146404 0.581828 -0.229736 -0.146399 0.436317 -0.172442 -0.109585 0.381483 -15.283353 -1.896115 0.002660 7.790292 -3.402806 9.490224 -0.097727 -4.288620 57.974086 -28.720918 -16.598186 -9.658104 -78.373928 86.921390 -17.599079 7.542954 30.538192 -7.755156 1.154243 -5.520295 -59.916660 -24.973707 14.420493 -78.304581 -55.813338 -4.600211 -1.052777 16.020280 -31.680234 -5.051873 -19.600789 -19.346526 6.459347 -21.374203 -1.285044 23.973271 -28.381555 1.778760 -43.691047 59.874784 -25.228731 -12.047417 0.845198 -0.362368 -4.197884 -2.006991 17.056147 8.239738 -1.684356 10.961116 -0.858452 -0.850867 -1.150177 
-36.148335 51.733429 81.884872 -3.989700 3.637029 -106.162703 1.611543 -0.435631 -0.696545 0.551670 -0.248052 -0.116640 0.551670 -0.248052 -0.116640 0.413703 -0.186145 -0.087257 0.488073 -15.152187 -2.075583 0.131280 8.033321 -3.700644 9.531987 -0.010145 -4.305565 58.044566 -28.534690 -16.766699 -9.409594 -78.452461 86.618895 -17.557804 7.452956 30.651929 -7.766006 1.209143 -5.625035 -59.795547 -24.949180 14.405477 -78.396700 -55.735624 -4.560307 -0.987519 15.870662 -31.545819 -4.918018 -19.575314 -19.160475 6.502174 -20.982075 -1.229432 24.153712 -29.130084 0.860195 -44.024367 60.895644 -25.772513 -12.108138 0.840654 -1.200472 -4.291083 -1.926058 17.094268 8.377662 -1.496214 11.583283 -0.927575 -0.919859 -1.303174 
-35.740154 51.648804 81.866020 -3.732258 3.827633 -105.909111 1.526699 -0.466272 -0.541867 0.533520 -0.273442 -0.085009 0.533520 -0.273443 -0.085008 0.400101 -0.205156 -0.063519 0.571742 -15.018070 -2.264310 0.212987 8.281043 -4.024699 9.602151 0.065847 -4.254685 58.093723 -28.381345 -16.936219 -9.295237 -78.469906 86.450954 -17.513684 7.408794 30.712902 -7.795732 1.317644 -5.692307 -59.663096 -25.014760 14.359038 -78.470923 -55.735238 -4.474102 -0.961616 15.821153 -31.531722 -4.925532 -19.461395 -18.920217 6.551918 -20.914816 -1.094699 24.474446 -29.583981 -0.091725 -44.391145 61.811457 -26.281205 -12.219562 0.759230 -1.670550 -4.393271 -1.829523 17.220512 8.502926 -1.255273 11.673376 -0.957155 -0.977582 -1.425185 
-35.355564 51.622616 81.835632 -3.512178 4.106115 -105.726008 1.363202 -0.507741 -0.318878 0.527864 -0.307828 -0.059721 0.527865 -0.307828 -0.059723 0.395867 -0.230923 -0.044526 0.637524 -14.874578 -2.458124 0.258428 8.545432 -4.365567 9.675328 0.164417 -4.186139 58.128707 -28.361853 -17.073033 -9.206337 -78.458649 86.322554 -17.556487 7.422846 30.737900 -7.858314 1.435858 -5.780917 -59.524976 -25.081295 14.294816 -78.523420 -55.776568 -4.368618 -0.950893 15.838073 -31.612315 -5.199083 -19.175660 -18.626798 6.633767 -21.232142 -1.241874 24.746737 -30.203476 -0.545618 -45.322062 62.756010 -27.279453 -12.489765 0.703893 -1.783758 -4.411521 -1.760605 17.112822 8.565758 -1.085335 11.609934 -0.943744 -0.952599 -1.412051 
-35.005856 51.659248 81.789688 -3.317518 4.393294 -105.562411 1.205227 -0.579420 -0.071819 0.534748 -0.354250 -0.043340 0.534748 -0.354250 -0.043342 0.401035 -0.265727 -0.032195 0.693826 -14.718014 -2.655581 0.283615 8.833536 -4.717576 9.724163 0.221741 -4.160266 58.105287 -28.432923 -17.061918 -9.282212 -78.449313 86.355332 -17.631578 7.483418 30.754935 -7.894255 1.473698 -5.862291 -59.422400 -25.112456 14.142764 -78.574175 -55.774266 -4.237933 -0.918261 15.836060 -31.727847 -5.694965 -18.627458 -18.354578 6.798057 -22.141846 -1.547457 25.035078 -30.737514 -0.723063 -46.600789 63.713828 -28.532606 -12.840946 0.675343 -1.747311 -4.350589 -1.745858 16.692345 8.689476 -0.927989 11.645869 -0.983226 -0.954127 -1.396127 
-34.651119 51.801785 81.732063 -3.235924 4.716695 -105.322207 0.991798 -0.756869 0.110247 0.552692 -0.419002 -0.038152 0.552692 -0.419002 -0.038149 0.414490 -0.314286 -0.028233 0.752318 -14.549809 -2.857484 0.310021 9.143001 -5.077879 9.758880 0.222906 -4.149461 58.019404 -28.518780 -16.900694 -9.270780 -78.471381 86.289420 -17.728026 7.555353 30.774695 -7.896979 1.515289 -5.927765 -59.414333 -25.137441 13.989749 -78.566901 -55.698745 -4.091293 -0.868337 15.785727 -31.883890 -6.398379 -17.825875 -18.159578 7.013313 -23.737641 -1.828079 25.812173 -31.302856 -0.740779 -49.376001 64.620502 -31.100409 -13.313809 0.597127 -1.849177 -4.293711 -1.801299 16.277919 8.798655 -0.859382 11.662498 -0.964463 -0.834558 -1.216041 
-34.245731 52.109379 81.678177 -3.283307 5.038975 -104.848246 0.748900 -1.048316 0.083983 0.581075 -0.516251 -0.044716 0.581075 -0.516252 -0.044716 0.435766 -0.387232 -0.033045 0.823040 -14.362725 -3.064677 0.355803 9.487603 -5.444407 9.793202 0.230818 -4.136280 57.915189 -28.625470 -16.682136 -9.184350 -78.479830 86.104097 -17.805576 7.584975 30.792897 -7.900131 1.526868 -6.052973 -59.472527 -25.127202 13.832533 -78.432073 -55.598023 -3.969760 -0.727550 15.673582 -32.165283 -7.230864 -16.750161 -18.117659 7.201627 -26.016978 -2.164067 27.351715 -32.175573 -0.575056 -53.899919 65.108006 -35.226875 -13.866108 0.373753 -2.253365 -4.287183 -1.897040 16.070168 8.881259 -0.856460 11.350484 -0.841552 -0.573143 -0.853495 
-33.820107 52.450405 81.628380 -3.365546 5.142440 -104.237518 0.718649 -1.416930 -0.045639 0.615213 -0.639245 -0.059449 0.615213 -0.639245 -0.059448 0.461342 -0.479494 -0.043943 0.916725 -14.169688 -3.277681 0.441389 9.843847 -5.813621 9.825933 0.185783 -4.106188 57.790791 -28.716017 -16.416230 -9.186739 -78.416186 85.934326 -17.926197 7.607386 30.840978 -7.836488 1.363642 -6.133013 -59.568129 -25.145654 13.464969 -78.054370 -55.493320 -4.014895 -0.529633 15.517816 -32.568166 -8.004228 -15.372526 -18.181096 7.335370 -28.942879 -2.809538 28.942162 -33.483503 -0.119527 -58.330171 65.185700 -39.279680 -14.167096 0.059488 -2.682964 -4.456336 -2.035743 16.242917 9.039074 -0.662120 10.714583 -0.651325 -0.377175 -0.503316 
-33.420429 52.744595 81.576881 -3.421915 5.048414 -103.565755 0.903622 -1.813368 -0.194742 0.640864 -0.778838 -0.073993 0.640863 -0.778838 -0.073994 0.480546 -0.584207 -0.054678 1.050141 -13.978165 -3.509612 0.593576 10.198338 -6.203310 9.844745 0.128082 -4.090556 57.700017 -28.828944 -16.154996 -8.909815 -78.278462 85.420019 -18.059473 7.572837 30.961893 -7.743366 1.158335 -6.221796 -59.727901 -25.182091 13.012890 -77.452221 -55.390447 -4.215449 -0.332183 15.384076 -32.966031 -8.607979 -13.735894 -18.300245 7.416103 -32.236092 -3.719009 30.335763 -35.196750 0.458366 -61.551677 64.757269 -42.251967 -14.193908 -0.292093 -2.942234 -4.721458 -2.166659 16.713128 9.121166 -0.211385 9.852586 -0.360095 -0.336343 -0.252274 
-33.075161 52.983727 81.528336 -3.420787 4.964079 -102.895195 1.118509 -2.177380 -0.308419 0.649688 -0.925220 -0.080817 0.649689 -0.925220 -0.080818 0.487131 -0.694002 -0.059627 1.224423 -13.784482 -3.769398 0.810918 10.557861 -6.629759 9.852981 0.103211 -4.108970 57.631374 -28.939050 -15.925365 -7.912724 -78.160846 84.149208 -18.259018 7.457709 31.184632 -7.707603 1.025428 -6.373867 -59.900404 -25.166635 12.617957 -76.829362 -55.305753 -4.374908 -0.115342 15.309236 -33.315935 -9.287848 -11.728480 -18.246714 7.733187 -35.836725 -4.548152 31.758901 -36.930997 0.581056 -63.033377 63.641100 -43.683158 -14.183634 -0.583257 -2.927025 -4.888914 -2.307549 17.041713 8.773229 0.384914 8.942392 0.161340 -0.404656 -0.046358 
-32.795292 53.173283 81.486267 -3.383692 4.934435 -102.261736 1.294319 -2.545955 -0.367485 0.646993 -1.069633 -0.062244 0.646992 -1.069633 -0.062243 0.485121 -0.802292 -0.045550 1.433817 -13.583580 -4.082241 1.072241 10.930954 -7.142891 9.840918 0.139574 -4.207290 57.601649 -29.041660 -15.756473 -6.338425 -78.138805 82.304258 -18.465266 7.211125 31.407621 -7.693238 0.953128 -6.575933 -60.049678 -25.151033 12.261741 -76.273528 -55.210137 -4.467979 0.128489 15.276995 -33.660159 -10.023594 -9.313960 -17.922066 8.201912 -39.713756 -4.948619 33.437007 -38.243155 0.082423 -62.267105 61.470248 -43.117768 -14.169371 -0.773689 -2.580260 -5.035801 -2.517175 17.190145 8.171354 1.053338 7.937477 0.747997 -0.520879 0.094866 
